<svg version="1.2" xmlns="http://www.w3.org/2000/svg" viewBox="0 0 197 179" width="197" height="179">
	<title>KORIN AI LOGO-02</title>
	<style>
		.s0 { fill: #ffffff } 
	</style>
	<path class="s0" d="m178.1 90.4h-4.9c-3.2 0-5.8-2.5-6-5.7-3-41.8-38.7-74.5-81.6-72.9-41.4 1.6-74.9 35.9-75.6 77.4-0.7 42.8 32.8 77.9 74.9 79.8l12.6 0.1c45.6 0 83.1-31.3 87.2-71.4 0.4-3.9-2.7-7.3-6.6-7.3zm-113.1-12.5c0 5.5-4.5 10-10 10-5.5 0-10-4.5-10-10v-17.7c0-5.6 4.5-10.1 10-10.1 5.5 0 10 4.5 10 10.1zm29.9 0c0 5.5-4.5 10-10 10-5.5 0-10-4.5-10-10v-17.7c0-5.6 4.5-10.1 10-10.1 5.5 0 10 4.5 10 10.1z"/>
</svg>